<?xml version="1.0" encoding="UTF-8" standalone="no"?>
<!-- Created with Inkscape (http://www.inkscape.org/) -->

<svg
   xmlns:dc="http://purl.org/dc/elements/1.1/"
   xmlns:cc="http://creativecommons.org/ns#"
   xmlns:rdf="http://www.w3.org/1999/02/22-rdf-syntax-ns#"
   xmlns:svg="http://www.w3.org/2000/svg"
   xmlns="http://www.w3.org/2000/svg"
   xmlns:sodipodi="http://sodipodi.sourceforge.net/DTD/sodipodi-0.dtd"
   xmlns:inkscape="http://www.inkscape.org/namespaces/inkscape"
   width="34.074608mm"
   height="30.544827mm"
   viewBox="0 0 34.074607 30.544826"
   version="1.1"
   id="svg8"
   inkscape:version="0.92.2 (5c3e80d, 2017-08-06)"
   sodipodi:docname="logo_v2.svg">
  <defs
     id="defs2" />
  <sodipodi:namedview
     id="base"
     pagecolor="#ffffff"
     bordercolor="#666666"
     borderopacity="1.0"
     inkscape:pageopacity="0.0"
     inkscape:pageshadow="2"
     inkscape:zoom="1.5763452"
     inkscape:cx="64.39295"
     inkscape:cy="57.653563"
     inkscape:document-units="px"
     inkscape:current-layer="text817"
     showgrid="false"
     showborder="false"
     inkscape:snap-text-baseline="true"
     inkscape:object-nodes="false"
     inkscape:snap-nodes="true"
     inkscape:snap-others="false"
     inkscape:snap-smooth-nodes="false"
     showguides="false"
     inkscape:guide-bbox="true"
     inkscape:window-width="1366"
     inkscape:window-height="715"
     inkscape:window-x="-8"
     inkscape:window-y="-8"
     inkscape:window-maximized="1">
    <sodipodi:guide
       position="14.979575,27.06813"
       orientation="0,1"
       id="guide989"
       inkscape:locked="false" />
    <sodipodi:guide
       position="22.95035,0.60516071"
       orientation="0,1"
       id="guide991"
       inkscape:locked="false" />
    <sodipodi:guide
       position="8.3923027,47.332587"
       orientation="1,0"
       id="guide995"
       inkscape:locked="false" />
    <sodipodi:guide
       position="26.136838,48.716583"
       orientation="1,0"
       id="guide997"
       inkscape:locked="false" />
    <sodipodi:guide
       position="-0.0072927052,82.512654"
       orientation="1,0"
       id="guide850"
       inkscape:locked="false" />
    <sodipodi:guide
       position="34.10761,47.122429"
       orientation="1,0"
       id="guide852"
       inkscape:locked="false" />
  </sodipodi:namedview>
  <metadata
     id="metadata5">
    <rdf:RDF>
      <cc:Work
         rdf:about="">
        <dc:format>image/svg+xml</dc:format>
        <dc:type
           rdf:resource="http://purl.org/dc/dcmitype/StillImage" />
        <dc:title></dc:title>
      </cc:Work>
    </rdf:RDF>
  </metadata>
  <g
     inkscape:label="Layer 1"
     inkscape:groupmode="layer"
     id="layer1"
     transform="translate(115.4113,-117.52867)">
    <g
       aria-label="Aline Balogh"
       style="font-style:normal;font-variant:normal;font-weight:normal;font-stretch:normal;font-size:22.97966194px;line-height:1.25;font-family:'Segoe Print';-inkscape-font-specification:'Segoe Print';letter-spacing:0px;word-spacing:0px;fill:#000000;fill-opacity:1;stroke:none;stroke-width:0.5744915"
       id="text817">
      <g
         id="g878">
        <rect
           ry="4.5982738"
           y="117.64642"
           x="-114.35297"
           height="30.463558"
           width="32.014576"
           id="rect854"
           style="opacity:0.76700003;fill:#c8b7b7;fill-opacity:1;stroke:none;stroke-width:2.09709382;stroke-linecap:round;stroke-linejoin:round;stroke-miterlimit:4;stroke-dasharray:none;stroke-dashoffset:0;stroke-opacity:1;paint-order:markers fill stroke" />
        <path
           inkscape:connector-curvature="0"
           id="path985"
           d="m -102.92853,147.06728 h -7.19756 c -2.37062,0 -4.2791,-1.72124 -4.2791,-3.85928 v -20.81383 c 0,-2.13805 1.90848,-3.85929 4.2791,-3.85929 v 0 h 7.19756"
           style="opacity:1;fill:none;fill-opacity:1;stroke:#241c1c;stroke-width:1.69465625;stroke-linecap:round;stroke-linejoin:round;stroke-miterlimit:4;stroke-dasharray:none;stroke-dashoffset:0;stroke-opacity:1;paint-order:markers fill stroke" />
        <path
           inkscape:connector-curvature="0"
           id="path980"
           d="m -93.819463,118.53488 h 7.197558 c 2.37062,0 4.279097,1.72124 4.279097,3.85929 V 143.208 c 0,2.13804 -1.908477,3.85928 -4.279097,3.85928 h -7.197561"
           style="opacity:1;fill:none;fill-opacity:1;stroke:#241c1c;stroke-width:1.69465625;stroke-linecap:round;stroke-linejoin:round;stroke-miterlimit:4;stroke-dasharray:none;stroke-dashoffset:0;stroke-opacity:1;paint-order:markers fill stroke" />
        <path
           sodipodi:nodetypes="csc"
           inkscape:connector-curvature="0"
           id="path886"
           d="m -90.828184,140.17769 c -2.316725,-1.48224 -2.895598,-4.29228 -7.260706,-5.01739 -3.49623,-0.58078 -10.91071,0.33695 -12.38573,-3.11491"
           style="opacity:1;fill:none;stroke:#241c1c;stroke-width:1.56500006;stroke-linecap:round;stroke-linejoin:round;stroke-miterlimit:4;stroke-dasharray:none;stroke-opacity:1" />
        <path
           style="font-style:normal;font-variant:normal;font-weight:normal;font-stretch:normal;font-family:'Segoe Print';-inkscape-font-specification:'Segoe Print';fill:#241c1c;fill-opacity:1;stroke-width:0.57449144"
           d="m -97.302073,124.17666 c -0.2319,0 -0.56505,0.2769 -0.99891,0.83044 -0.43386,0.54607 -1.45458,2.34848 -3.062857,5.40794 -1.01733,1.92245 -2.26698,3.97997 -3.74809,6.17172 -0.83032,1.23426 -1.3797,2.05665 -1.649,2.46806 -0.26929,0.40394 -0.4041,0.72596 -0.4041,0.96532 0,0.24685 0.14207,0.48589 0.42633,0.71779 0.28425,0.23937 0.52718,0.35915 0.72915,0.35915 0.28425,0 0.54274,-0.15322 0.77463,-0.45992 0.23937,-0.31418 0.80767,-1.27527 1.70532,-2.88355 0.20091,-0.35778 0.36696,-0.627 0.51625,-0.85318 l 1.35754,-2.24379 2.030876,-3.84886 c 0.86024,-1.59331 1.49596,-2.82352 1.90738,-3.69124 0.14961,0.36654 0.501171,1.39893 1.054721,3.09697 0.50866,1.59331 0.894188,2.6887 1.155997,3.28713 l 1.380274,3.55741 c 1.361428,3.01458 2.520855,4.52169 3.478342,4.52169 0.306696,0 0.568553,-0.11589 0.785482,-0.34779 0.224412,-0.2244 0.336413,-0.5013 0.336413,-0.83044 0,-0.187 -0.04848,-0.34801 -0.145728,-0.48265 -0.08976,-0.14213 -0.322064,-0.39621 -0.696081,-0.76275 -0.59843,-0.58346 -1.26033,-1.58967 -1.985926,-3.01842 -0.718113,-1.43623 -1.410091,-3.1606 -2.075846,-5.17281 -0.29174,-0.8752 -0.58703,-1.69421 -0.88625,-2.45721 -0.23936,-0.56851 -0.4823,-1.29394 -0.72915,-2.17662 l -0.146238,-0.47128 c 0.0673,-0.16457 0.101278,-0.4075 0.101278,-0.72916 0,-0.3142 -0.034,-0.4975 -0.101278,-0.54984 -0.24686,-0.26929 -0.61683,-0.40411 -1.110529,-0.40411 z"
           id="path939"
           inkscape:connector-curvature="0" />
      </g>
    </g>
  </g>
</svg>
