<?xml version="1.0" encoding="UTF-8" standalone="no"?>
<!-- Created with Inkscape (http://www.inkscape.org/) -->

<svg
   xmlns:dc="http://purl.org/dc/elements/1.1/"
   xmlns:cc="http://creativecommons.org/ns#"
   xmlns:rdf="http://www.w3.org/1999/02/22-rdf-syntax-ns#"
   xmlns:svg="http://www.w3.org/2000/svg"
   xmlns="http://www.w3.org/2000/svg"
   xmlns:sodipodi="http://sodipodi.sourceforge.net/DTD/sodipodi-0.dtd"
   xmlns:inkscape="http://www.inkscape.org/namespaces/inkscape"
   width="39.843624mm"
   height="37.500095mm"
   viewBox="0 0 39.843624 37.500095"
   version="1.1"
   id="svg8"
   inkscape:version="0.92.2 (5c3e80d, 2017-08-06)"
   sodipodi:docname="contact_icon.svg">
  <defs
     id="defs2" />
  <sodipodi:namedview
     id="base"
     pagecolor="#ffffff"
     bordercolor="#666666"
     borderopacity="1.0"
     inkscape:pageopacity="0.0"
     inkscape:pageshadow="2"
     inkscape:zoom="0.73539105"
     inkscape:cx="-1.7026242"
     inkscape:cy="89.838404"
     inkscape:document-units="px"
     inkscape:current-layer="layer1"
     showgrid="false"
     showborder="false"
     inkscape:object-nodes="false"
     inkscape:window-width="1366"
     inkscape:window-height="715"
     inkscape:window-x="-8"
     inkscape:window-y="-8"
     inkscape:window-maximized="1"
     inkscape:snap-smooth-nodes="true"
     inkscape:snap-midpoints="false"
     inkscape:snap-intersection-paths="true"
     inkscape:snap-bbox="false"
     inkscape:bbox-nodes="false" />
  <metadata
     id="metadata5">
    <rdf:RDF>
      <cc:Work
         rdf:about="">
        <dc:format>image/svg+xml</dc:format>
        <dc:type
           rdf:resource="http://purl.org/dc/dcmitype/StillImage" />
        <dc:title></dc:title>
      </cc:Work>
    </rdf:RDF>
  </metadata>
  <g
     inkscape:label="Layer 1"
     inkscape:groupmode="layer"
     id="layer1"
     transform="translate(61.222191,-158.41693)">
    <g
       id="g1037">
      <path
         inkscape:connector-curvature="0"
         id="path1010"
         d="m -35.437426,195.13529 a 12.111948,12.111948 0 0 1 -11.724933,-12.48743 12.111948,12.111948 0 0 1 12.487924,-11.72439 12.111948,12.111948 0 0 1 11.724417,12.4874 12.111948,12.111948 0 0 1 -3.007615,7.59953 l 3.803184,3.77415 -7.345928,-0.99772 a 12.111948,12.111948 0 0 1 -5.937049,1.34846 z"
         style="opacity:0.79100001;fill:none;fill-opacity:1;stroke:#e3dbdb;stroke-width:1.55204582;stroke-linecap:butt;stroke-linejoin:round;stroke-miterlimit:4;stroke-dasharray:none;stroke-dashoffset:0;stroke-opacity:1;paint-order:markers fill stroke" />
      <path
         inkscape:connector-curvature="0"
         id="path1019"
         d="m -35.432499,171.25594 a 12.111948,12.111948 0 0 0 -0.0059,-0.33247 12.111948,12.111948 0 0 0 -12.487924,-11.72439 12.111948,12.111948 0 0 0 -11.724417,12.4874 12.111948,12.111948 0 0 0 3.007615,7.59953 l -3.803184,3.77415 7.345928,-0.99772 a 12.111948,12.111948 0 0 1 5.574561,1.35417"
         style="opacity:0.79100001;fill:none;fill-opacity:1;stroke:#e3dbdb;stroke-width:1.55204582;stroke-linecap:butt;stroke-linejoin:round;stroke-miterlimit:4;stroke-dasharray:none;stroke-dashoffset:0;stroke-opacity:1;paint-order:markers fill stroke" />
    </g>
  </g>
</svg>
