<svg xmlns="http://www.w3.org/2000/svg" width="455" height="451" viewBox="0 0 120 119" version="1">
  <g fill="#08f">
    <path d="M16 16a62 57 45 0 0 3 84 62 57 45 0 0 85 3 62 57 45 0 0 6-8 62 57 45 0 1-76-9A62 57 45 0 1 24 9a62 57 45 0 0-8 7z" paint-order="markers fill stroke"/>
    <path d="M41 9a47 44 45 0 0 3 65 47 44 45 0 0 64 2 47 44 45 0 0 5-6 47 44 45 0 1-58-7 47 44 45 0 1-8-58 47 44 45 0 0-6 4z" paint-order="markers fill stroke"/>
    <path d="M67 4a35 33 45 0 0 2 47 35 33 45 0 0 48 2 35 33 45 0 0 3-4 35 33 45 0 1-43-6 35 33 45 0 1-6-43 35 33 45 0 0-4 4z" paint-order="markers fill stroke"/>
  </g>
</svg>
