<?xml version="1.0" encoding="UTF-8" standalone="no"?>
<!-- Created with Inkscape (http://www.inkscape.org/) -->

<svg
   xmlns:dc="http://purl.org/dc/elements/1.1/"
   xmlns:cc="http://creativecommons.org/ns#"
   xmlns:rdf="http://www.w3.org/1999/02/22-rdf-syntax-ns#"
   xmlns:svg="http://www.w3.org/2000/svg"
   xmlns="http://www.w3.org/2000/svg"
   xmlns:sodipodi="http://sodipodi.sourceforge.net/DTD/sodipodi-0.dtd"
   xmlns:inkscape="http://www.inkscape.org/namespaces/inkscape"
   width="157.28883mm"
   height="30.544836mm"
   viewBox="0 0 157.28883 30.544836"
   version="1.1"
   id="svg8"
   inkscape:version="0.92.2 (5c3e80d, 2017-08-06)"
   sodipodi:docname="logo.svg">
  <defs
     id="defs2" />
  <sodipodi:namedview
     id="base"
     pagecolor="#ffffff"
     bordercolor="#666666"
     borderopacity="1.0"
     inkscape:pageopacity="0.0"
     inkscape:pageshadow="2"
     inkscape:zoom="0.82985482"
     inkscape:cx="349.97209"
     inkscape:cy="55.810519"
     inkscape:document-units="px"
     inkscape:current-layer="text817"
     showgrid="false"
     showborder="false"
     inkscape:snap-text-baseline="true"
     inkscape:object-nodes="false"
     inkscape:snap-nodes="true"
     inkscape:snap-others="false"
     inkscape:snap-smooth-nodes="false"
     showguides="false"
     inkscape:guide-bbox="true"
     inkscape:window-width="1366"
     inkscape:window-height="715"
     inkscape:window-x="-8"
     inkscape:window-y="-8"
     inkscape:window-maximized="1">
    <sodipodi:guide
       position="20.406992,28.407992"
       orientation="0,1"
       id="guide989"
       inkscape:locked="false" />
    <sodipodi:guide
       position="28.377767,1.9450227"
       orientation="0,1"
       id="guide991"
       inkscape:locked="false" />
    <sodipodi:guide
       position="2.5524626,28.407992"
       orientation="1,0"
       id="guide995"
       inkscape:locked="false" />
    <sodipodi:guide
       position="153.99713,91.21767"
       orientation="1,0"
       id="guide997"
       inkscape:locked="false" />
  </sodipodi:namedview>
  <metadata
     id="metadata5">
    <rdf:RDF>
      <cc:Work
         rdf:about="">
        <dc:format>image/svg+xml</dc:format>
        <dc:type
           rdf:resource="http://purl.org/dc/dcmitype/StillImage" />
        <dc:title></dc:title>
      </cc:Work>
    </rdf:RDF>
  </metadata>
  <g
     inkscape:label="Layer 1"
     inkscape:groupmode="layer"
     id="layer1"
     transform="translate(120.83872,-118.86852)">
    <g
       aria-label="Aline Balogh"
       style="font-style:normal;font-variant:normal;font-weight:normal;font-stretch:normal;font-size:22.97966194px;line-height:1.25;font-family:'Segoe Print';-inkscape-font-specification:'Segoe Print';letter-spacing:0px;word-spacing:0px;fill:#000000;fill-opacity:1;stroke:none;stroke-width:0.5744915"
       id="text817">
      <path
         style="opacity:1;fill:none;fill-opacity:1;stroke:#241c1c;stroke-width:2.01222539;stroke-linecap:round;stroke-linejoin:round;stroke-miterlimit:4;stroke-dasharray:none;stroke-dashoffset:0;stroke-opacity:1;paint-order:markers fill stroke"
         d="m -108.35595,148.91302 h -7.19756 c -2.37062,0 -4.2791,-1.72124 -4.2791,-3.85928 v -20.81383 c 0,-2.13805 1.90848,-3.85929 4.2791,-3.85929 v 0 h 7.19756"
         id="path985"
         inkscape:connector-curvature="0" />
      <path
         style="opacity:1;fill:none;fill-opacity:1;stroke:#241c1c;stroke-width:2.01222539;stroke-linecap:round;stroke-linejoin:round;stroke-miterlimit:4;stroke-dasharray:none;stroke-dashoffset:0;stroke-opacity:1;paint-order:markers fill stroke"
         d="m 26.83682,120.38062 h 7.197558 c 2.37062,0 4.279097,1.72124 4.279097,3.85929 v 20.81383 c 0,2.13804 -1.908477,3.85928 -4.279097,3.85928 h -7.197561"
         id="path980"
         inkscape:connector-curvature="0" />
      <path
         style="opacity:1;fill:none;stroke:#483737;stroke-width:1.56500006;stroke-linecap:round;stroke-linejoin:round;stroke-miterlimit:4;stroke-dasharray:none;stroke-opacity:1"
         d="m -94.754224,140.17769 c -2.316725,-1.48224 -2.895598,-4.29228 -7.260706,-5.01739 -3.49623,-0.58078 -10.91071,0.33695 -12.38573,-3.11491"
         id="path886"
         inkscape:connector-curvature="0"
         sodipodi:nodetypes="csc" />
      <path
         inkscape:connector-curvature="0"
         id="path939"
         d="m -101.15742,124.09954 c -0.2319,0 -0.56505,0.2769 -0.99891,0.83044 -0.43386,0.54607 -1.45458,2.34848 -3.06286,5.40794 -1.01733,1.92245 -2.26698,3.97997 -3.74809,6.17172 -0.83032,1.23426 -1.3797,2.05665 -1.649,2.46806 -0.26929,0.40394 -0.4041,0.72596 -0.4041,0.96532 0,0.24685 0.14207,0.48589 0.42633,0.71779 0.28425,0.23937 0.52718,0.35915 0.72915,0.35915 0.28425,0 0.54274,-0.15322 0.77463,-0.45992 0.23937,-0.31418 0.80767,-1.27527 1.70532,-2.88355 0.20091,-0.35778 0.36696,-0.627 0.51625,-0.85318 l 1.35754,-2.24379 2.03088,-3.84886 c 0.86024,-1.59331 1.49596,-2.82352 1.90738,-3.69124 0.14961,0.36654 0.50117,1.39893 1.05472,3.09697 0.50866,1.59331 0.894188,2.6887 1.155998,3.28713 l 1.380274,3.55741 c 1.361427,3.01458 2.520855,4.52169 3.478342,4.52169 0.306695,0 0.568553,-0.11589 0.785482,-0.34779 0.224412,-0.2244 0.336413,-0.5013 0.336413,-0.83044 0,-0.187 -0.04848,-0.34801 -0.145728,-0.48265 -0.08976,-0.14213 -0.322064,-0.39621 -0.696081,-0.76275 -0.59843,-0.58346 -1.26033,-1.58967 -1.985926,-3.01842 -0.718113,-1.43623 -1.410091,-3.1606 -2.075846,-5.17281 -0.29174,-0.8752 -0.58703,-1.69421 -0.88625,-2.45721 -0.23936,-0.56851 -0.4823,-1.29394 -0.72915,-2.17662 l -0.146238,-0.47128 c 0.0673,-0.16457 0.101278,-0.4075 0.101278,-0.72916 0,-0.3142 -0.034,-0.4975 -0.101278,-0.54984 -0.24686,-0.26929 -0.61683,-0.40411 -1.11053,-0.40411 z"
         style="font-style:normal;font-variant:normal;font-weight:normal;font-stretch:normal;font-family:'Segoe Print';-inkscape-font-specification:'Segoe Print';fill:#483737;stroke-width:0.57449144" />
      <path
         inkscape:connector-curvature="0"
         style="font-style:normal;font-variant:normal;font-weight:normal;font-stretch:normal;font-family:'Segoe Print';-inkscape-font-specification:'Segoe Print';fill:#483737;stroke:#483737;stroke-width:0.57449144"
         d="m -101.15742,124.09954 c -0.2319,0 -0.56505,0.2769 -0.99891,0.83044 -0.43386,0.54607 -1.45458,2.34848 -3.06286,5.40794 -1.01733,1.92245 -2.26698,3.97997 -3.74809,6.17172 -0.83032,1.23426 -1.3797,2.05665 -1.649,2.46806 -0.26929,0.40394 -0.4041,0.72596 -0.4041,0.96532 0,0.24685 0.14207,0.48589 0.42633,0.71779 0.28425,0.23937 0.52718,0.35915 0.72915,0.35915 0.28425,0 0.54274,-0.15322 0.77463,-0.45992 0.23937,-0.31418 0.80767,-1.27527 1.70532,-2.88355 0.20091,-0.35778 0.36696,-0.627 0.51625,-0.85318 l 1.35754,-2.24379 2.03088,-3.84886 c 0.86024,-1.59331 1.49596,-2.82352 1.90738,-3.69124 0.14961,0.36654 0.50117,1.39893 1.05472,3.09697 0.50866,1.59331 0.894188,2.6887 1.155998,3.28713 l 1.380274,3.55741 c 1.361427,3.01458 2.520855,4.52169 3.478342,4.52169 0.306695,0 0.568553,-0.11589 0.785482,-0.34779 0.224412,-0.2244 0.336413,-0.5013 0.336413,-0.83044 0,-0.187 -0.04848,-0.34801 -0.145728,-0.48265 -0.08976,-0.14213 -0.322064,-0.39621 -0.696081,-0.76275 -0.59843,-0.58346 -1.26033,-1.58967 -1.985926,-3.01842 -0.718113,-1.43623 -1.410091,-3.1606 -2.075846,-5.17281 -0.29174,-0.8752 -0.58703,-1.69421 -0.88625,-2.45721 -0.23936,-0.56851 -0.4823,-1.29394 -0.72915,-2.17662 l -0.146238,-0.47128 c 0.0673,-0.16457 0.101278,-0.4075 0.101278,-0.72916 0,-0.3142 -0.034,-0.4975 -0.101278,-0.54984 -0.24686,-0.26929 -0.61683,-0.40411 -1.11053,-0.40411 z"
         id="path845" />
      <path
         inkscape:connector-curvature="0"
         d="m -87.625566,121.56367 q 0.807879,0 0.807879,1.03229 0,0.92009 -0.976187,4.37601 -0.617129,2.17679 -0.953746,4.80239 -0.336616,2.62561 -0.336616,4.11794 0,1.85139 0.235632,3.68034 0.04488,0.34783 0.04488,0.50492 0,0.56103 -0.381499,0.96497 -0.381498,0.40394 -0.807878,0.40394 -0.594689,0 -0.83032,-0.74056 -0.224411,-0.74056 -0.224411,-2.38997 0,-3.75888 0.897643,-9.31305 0.908864,-5.55417 1.436229,-6.49669 0.538586,-0.94253 1.088392,-0.94253 z"
         style="font-style:normal;font-variant:normal;font-weight:normal;font-stretch:normal;font-family:'Segoe Print';-inkscape-font-specification:'Segoe Print';opacity:1;fill:#916f6f;stroke-width:0.5744915"
         id="path847" />
      <path
         inkscape:connector-curvature="0"
         style="font-style:normal;font-variant:normal;font-weight:normal;font-stretch:normal;font-family:'Segoe Print';-inkscape-font-specification:'Segoe Print';opacity:1;fill:#483737;stroke-width:0.5744915"
         d="m -81.342064,125.53574 q -0.235631,0 -0.359057,-0.50492 -0.04488,-0.15709 -0.123426,-0.34784 -0.302954,-0.72933 -0.302954,-1.26792 0,-0.44882 0.527365,-0.90886 0.538586,-0.47126 1.189377,-0.47126 0.325396,0 0.729335,0.25807 0.403939,0.24685 0.403939,0.48248 0,0.37028 -0.280513,1.2567 -0.269293,0.88642 -0.875202,1.2006 -0.594689,0.30295 -0.908864,0.30295 z"
         id="path933" />
      <path
         inkscape:connector-curvature="0"
         style="font-style:normal;font-variant:normal;font-weight:normal;font-stretch:normal;font-family:'Segoe Print';-inkscape-font-specification:'Segoe Print';opacity:1;fill:#916f6f;stroke-width:0.5744915"
         d="m -82.811954,138.06908 q 0,0.85276 0.235631,1.91872 0.04488,0.20197 0.04488,0.33661 0,0.20197 -0.370277,0.51615 -0.370278,0.32539 -0.785438,0.32539 -1.088392,0 -1.088392,-1.99725 0,-2.06458 0.852761,-6.53036 0.291734,-1.55965 0.291734,-1.91871 0,-0.70689 0.258072,-1.2006 0.258072,-0.50492 0.729335,-0.50492 0.572247,0 0.897643,0.28051 0.336616,0.2693 0.336616,0.60591 0,0.33662 -0.157087,0.88642 -0.841541,2.96223 -1.04351,4.24137 -0.20197,1.27914 -0.20197,3.04076 z"
         id="path849" />
      <path
         inkscape:connector-curvature="0"
         d="m -70.671333,131.93145 q -0.583468,0 -1.279142,0.763 -0.684452,0.76299 -2.09824,3.42226 -1.86261,3.56813 -2.412416,4.06184 -0.538586,0.4937 -0.897643,0.4937 -1.324023,0 -1.324023,-1.27914 0,-0.53859 0.179528,-1.526 0.61713,-3.3886 0.61713,-7.14748 0,-0.42638 0.359057,-0.94252 0.370278,-0.52737 0.695673,-0.52737 0.583468,0 0.83032,0.35906 0.246852,0.35906 0.246852,1.44745 0,1.13327 -0.673232,4.66774 -0.224411,1.16694 -0.224411,1.48111 0,0.17953 0.08976,0.17953 0.168308,0 1.559655,-2.68171 1.402567,-2.72659 2.457298,-3.83742 1.05473,-1.11083 2.322651,-1.11083 1.009849,0 1.638199,0.92008 0.63957,0.92008 0.931304,3.35494 0.314175,2.77147 0.561027,3.45593 0.258073,0.67323 0.807879,0.67323 0.347837,0 0.875202,-0.24685 0.08976,-0.0449 0.134646,-0.0449 0.482484,0 0.482484,0.56103 0,0.4937 -0.662012,1.05473 -0.662012,0.54981 -1.593317,0.54981 -0.953745,0 -1.481111,-0.75178 -0.516144,-0.76299 -0.819099,-4.05061 -0.314175,-3.29884 -1.324023,-3.29884 z"
         style="font-style:normal;font-variant:normal;font-weight:normal;font-stretch:normal;font-family:'Segoe Print';-inkscape-font-specification:'Segoe Print';opacity:1;fill:#916f6f;stroke-width:0.5744915"
         id="path851" />
      <path
         inkscape:connector-curvature="0"
         d="m -53.447808,136.75628 q 0,1.1445 -2.030917,2.76025 -2.019697,1.61576 -4.17404,1.61576 -1.806507,0 -2.793914,-1.06595 -0.976187,-1.06595 -0.976187,-2.97344 0,-3.20908 2.165564,-6.10398 2.165564,-2.89489 4.735067,-2.89489 0.84154,0 1.368906,0.5498 0.538585,0.54981 0.538585,1.32403 0,1.72796 -1.694301,3.31005 -1.694301,1.5821 -4.533097,3.10809 -0.583468,0.30296 -0.583468,0.78544 0,0.93131 0.538586,1.49233 0.538586,0.56103 1.593316,0.56103 2.412416,0 4.925816,-2.67049 0.370278,-0.37028 0.561027,-0.37028 0.359057,0 0.359057,0.57225 z m -7.798274,-1.7504 q 4.757509,-2.82758 4.757509,-4.54432 0,-0.67323 -0.605909,-0.67323 -1.03229,0 -2.333872,1.51477 -1.290362,1.51477 -1.817728,3.70278 z"
         style="font-style:normal;font-variant:normal;font-weight:normal;font-stretch:normal;font-family:'Segoe Print';-inkscape-font-specification:'Segoe Print';opacity:1;fill:#916f6f;stroke-width:0.5744915"
         id="path853" />
      <path
         inkscape:connector-curvature="0"
         d="m -31.163821,131.38164 q 0,0.17953 0.224411,0.23563 1.211818,0.34784 2.143123,1.35769 0.931305,0.99863 0.931305,2.37875 0,2.12069 -2.715371,4.36479 -2.71537,2.24411 -5.711254,2.24411 -0.84154,0 -1.324023,-0.22441 -0.471263,-0.21319 -0.471263,-0.50492 0,-1.41379 1.997256,-1.41379 0.280514,0 0.863982,0.0224 0.594688,0.0224 1.357685,-0.28051 0.774217,-0.31418 1.503552,-0.79666 0.729335,-0.49371 1.245479,-1.00985 0.527366,-0.52737 0.841541,-1.11083 0.325395,-0.58347 0.325395,-1.17816 0,-0.96497 -0.84154,-1.71674 -0.83032,-0.75178 -2.221666,-0.75178 -0.224411,0 -1.065952,0.35906 -0.84154,0.37028 -1.099612,0.37028 -0.875202,0 -1.099613,-0.22442 -0.21319,-0.22441 -0.21319,-0.79665 0,-0.34784 1.896271,-1.12206 1.582096,-0.62835 3.063207,-2.05336 1.492331,-1.425 1.492331,-2.41241 0,-0.68445 -0.561027,-1.08839 -0.561027,-0.40394 -1.570875,-0.40394 -1.67186,0 -3.321279,0.41516 -1.649419,0.40394 -1.817728,0.76299 -0.157087,0.35906 -0.908863,5.44196 -0.751776,5.07169 -0.751776,5.86835 0,0.78543 0.03366,1.46989 0.03366,0.67323 -0.246851,1.15571 -0.269293,0.49371 -0.931305,0.49371 -0.605909,0 -0.942525,-0.48249 -0.325396,-0.47126 -0.325396,-1.2006 0,-0.19074 0.100985,-0.58346 0.583468,-2.41242 1.099613,-6.1713 0.516144,-3.75888 0.516144,-4.34235 0,-0.47126 -0.134646,-0.69567 -0.123426,-0.22441 -0.583468,-0.22441 -0.179529,0 -0.359057,0.0112 -0.168308,0.0112 -0.347837,-0.21319 -0.168308,-0.22441 -0.168308,-0.53859 0,-0.9874 3.175412,-1.94115 3.175413,-0.95375 6.45181,-0.95375 1.68308,0 2.749032,0.90887 1.077171,0.89764 1.077171,2.10946 0,0.89764 -0.920084,2.12068 -0.908864,1.21182 -2.434857,2.34509 z"
         style="font-style:normal;font-variant:normal;font-weight:normal;font-stretch:normal;font-family:'Segoe Print';-inkscape-font-specification:'Segoe Print';fill:#483737;stroke:#483737;stroke-width:0.5744915"
         id="path855" />
      <path
         inkscape:connector-curvature="0"
         d="m -17.474767,136.47577 q -1.570875,2.10946 -3.108089,3.16419 -1.537214,1.05473 -2.816355,1.05473 -0.863981,0 -1.492331,-0.72934 -0.628351,-0.72933 -0.628351,-1.87383 0,-2.951 2.636827,-6.35082 2.636826,-3.41104 5.239991,-3.41104 0.942525,0 1.402567,1.07717 0.145867,0.35906 0.460042,0.35906 0.897643,0 0.897643,0.69567 0,0.34784 -0.112205,0.95374 -0.605909,3.31006 -0.605909,4.66775 0,2.71537 1.03229,3.25395 0.493703,0.2693 0.493703,0.66202 0,0.34783 -0.482483,0.69567 -0.482483,0.35906 -0.931305,0.35906 -0.863981,0 -1.425008,-1.18938 -0.561027,-1.18938 -0.561027,-3.3886 z m -0.684453,-6.31717 q -1.481111,0 -3.444705,2.7827 -1.963594,2.77147 -1.963594,4.60042 0,1.29036 0.852761,1.29036 1.234259,0 3.422264,-2.49096 2.188005,-2.49096 2.188005,-4.57798 0,-1.60454 -1.054731,-1.60454 z"
         style="font-style:normal;font-variant:normal;font-weight:normal;font-stretch:normal;font-family:'Segoe Print';-inkscape-font-specification:'Segoe Print';opacity:1;fill:#ab9292;fill-opacity:1;stroke-width:0.5744915"
         id="path857" />
      <path
         inkscape:connector-curvature="0"
         d="m -7.6006917,121.56367 q 0.8078788,0 0.8078788,1.03229 0,0.92009 -0.9761868,4.37601 -0.6171299,2.17679 -0.9537459,4.80239 -0.336616,2.62561 -0.336616,4.11794 0,1.85139 0.235631,3.68034 0.04488,0.34783 0.04488,0.50492 0,0.56103 -0.381498,0.96497 -0.381498,0.40394 -0.807879,0.40394 -0.5946884,0 -0.8303194,-0.74056 -0.224411,-0.74056 -0.224411,-2.38997 0,-3.75888 0.897643,-9.31305 0.9088634,-5.55417 1.4362294,-6.49669 0.5385856,-0.94253 1.0883919,-0.94253 z"
         style="font-style:normal;font-variant:normal;font-weight:normal;font-stretch:normal;font-family:'Segoe Print';-inkscape-font-specification:'Segoe Print';opacity:1;fill:#ab9292;fill-opacity:1;stroke-width:0.5744915"
         id="path859" />
      <path
         inkscape:connector-curvature="0"
         d="m -1.6538037,141.12107 q -1.5372137,0 -2.5358416,-1.16694 -0.9986279,-1.16693 -0.9986279,-2.88367 0,-2.8949 1.9411531,-5.70004 1.9523736,-2.81635 4.6677438,-2.81635 1.7952861,0 2.9061194,1.38012 1.1220538,1.38013 1.1220538,3.28762 0,2.91734 -2.3114309,5.4083 -2.30021028,2.49096 -4.7911697,2.49096 z m -1.5596548,-4.34235 q 0,1.13328 0.4712626,1.85139 0.4824831,0.71812 1.2679208,0.71812 1.6718602,0 3.3549409,-1.82895 1.6830807,-1.84017 1.6830807,-4.08428 0,-1.38012 -0.6507912,-2.23289 -0.6395707,-0.86398 -1.7279629,-0.86398 -1.8065066,0 -3.108089,2.22167 -1.2903619,2.21045 -1.2903619,4.21892 z"
         style="font-style:normal;font-variant:normal;font-weight:normal;font-stretch:normal;font-family:'Segoe Print';-inkscape-font-specification:'Segoe Print';opacity:1;fill:#ab9292;fill-opacity:1;stroke-width:0.5744915"
         id="path861" />
      <path
         inkscape:connector-curvature="0"
         d="m 16.018543,136.49821 q -0.134647,-0.10099 -0.751777,0.62835 -1.021068,1.2006 -2.614385,2.1319 -1.582095,0.93131 -2.9397805,0.93131 -1.0098484,0 -1.5820958,-0.62835 -0.5722475,-0.63958 -0.5722475,-1.76163 0,-1.73918 1.312803,-3.87108 1.3128028,-2.14313 3.6691158,-3.73644 2.367533,-1.59332 4.140378,-1.59332 0.931305,0 1.638199,0.53859 0.168308,0.13464 0.291734,0.22441 0.20197,0.14586 0.381498,0.59468 0.179529,0.43761 0.179529,0.7069 0,0.16831 -0.123426,0.51614 -0.684453,1.86261 -0.931305,3.08565 -0.246852,1.22304 -0.538586,4.11794 -0.269293,2.60316 -0.583468,4.00573 -0.314175,1.40257 -1.133274,2.71537 -0.819099,1.3128 -1.963594,1.9636 -1.144495,0.66201 -2.356313,0.66201 -2.0982404,0 -4.1403783,-1.44745 -2.0421379,-1.44745 -2.0421379,-2.32265 0,-0.54981 0.4151599,-0.54981 0.2019697,0 1.2005976,0.66201 2.6368264,1.76163 4.7462877,1.76163 1.840168,0 2.793913,-1.9636 0.964967,-1.96359 1.312803,-5.86834 0.07854,-0.88642 0.19075,-1.50355 z m -0.02244,-6.16008 q -0.953745,0 -2.389974,0.98741 -1.425008,0.98741 -2.771473,2.8949 -1.3464642,1.90749 -1.3464642,3.19785 0,0.4376 0.2692929,0.69568 0.2805133,0.24685 0.6171293,0.24685 0.998628,0 2.603165,-1.03229 1.615757,-1.03229 2.771473,-2.86124 1.166936,-1.84017 1.166936,-2.88368 0,-1.24548 -0.920085,-1.24548 z"
         style="font-style:normal;font-variant:normal;font-weight:normal;font-stretch:normal;font-family:'Segoe Print';-inkscape-font-specification:'Segoe Print';opacity:1;fill:#ab9292;fill-opacity:1;stroke-width:0.5744915"
         id="path863" />
      <path
         inkscape:connector-curvature="0"
         d="m 23.121141,137.19388 q 4.17404,-7.70851 6.87819,-7.70851 0.718114,0 1.166936,0.8191 0.448821,0.8191 0.729335,3.63546 0.280513,2.99588 1.267921,4.33112 0.504924,0.68446 0.504924,1.00985 0,0.29174 -0.336616,0.53859 -0.336616,0.24685 -0.718115,0.24685 -0.875202,0 -1.548434,-0.97619 -0.673232,-0.9874 -0.863981,-3.45592 -0.19075,-2.33387 -0.40394,-3.05199 -0.21319,-0.71811 -0.706894,-0.71811 -1.178156,0 -4.746287,6.16007 -1.065951,1.84017 -1.570876,2.41242 -0.504924,0.56102 -0.920084,0.56102 -0.493703,0 -0.83032,-0.29173 -0.336616,-0.29173 -0.336616,-0.71811 0,-0.31418 0.179529,-1.21182 1.380126,-7.12504 2.176784,-14.093 0.179529,-1.62698 0.572248,-2.16556 0.403939,-0.53859 0.673232,-0.53859 0.482483,0 0.875202,0.39272 0.392719,0.39272 0.392719,1.08839 0,2.06458 -1.009849,5.66638 -0.493703,1.78406 -1.04351,4.53309 -0.549806,2.74903 -0.549806,3.39983 0,0.13464 0.123426,0.13464 z"
         style="font-style:normal;font-variant:normal;font-weight:normal;font-stretch:normal;font-family:'Segoe Print';-inkscape-font-specification:'Segoe Print';opacity:1;fill:#ab9292;fill-opacity:1;stroke-width:0.5744915"
         id="path865" />
    </g>
  </g>
</svg>
