<?xml version="1.0" encoding="UTF-8" standalone="no"?>
<!-- Created with Inkscape (http://www.inkscape.org/) -->

<svg
   xmlns:dc="http://purl.org/dc/elements/1.1/"
   xmlns:cc="http://creativecommons.org/ns#"
   xmlns:rdf="http://www.w3.org/1999/02/22-rdf-syntax-ns#"
   xmlns:svg="http://www.w3.org/2000/svg"
   xmlns="http://www.w3.org/2000/svg"
   xmlns:sodipodi="http://sodipodi.sourceforge.net/DTD/sodipodi-0.dtd"
   xmlns:inkscape="http://www.inkscape.org/namespaces/inkscape"
   width="120.27471mm"
   height="119.21637mm"
   viewBox="0 0 120.27471 119.21637"
   version="1.1"
   id="svg8"
   inkscape:version="0.92.2 (5c3e80d, 2017-08-06)"
   sodipodi:docname="jquery_icon.svg">
  <defs
     id="defs2" />
  <sodipodi:namedview
     id="base"
     pagecolor="#ffffff"
     bordercolor="#666666"
     borderopacity="1.0"
     inkscape:pageopacity="0.0"
     inkscape:pageshadow="2"
     inkscape:zoom="1"
     inkscape:cx="225.66301"
     inkscape:cy="256.30617"
     inkscape:document-units="px"
     inkscape:current-layer="layer1"
     showgrid="false"
     inkscape:lockguides="false"
     showguides="true"
     inkscape:guide-bbox="true"
     showborder="false"
     inkscape:window-width="1366"
     inkscape:window-height="715"
     inkscape:window-x="-8"
     inkscape:window-y="-8"
     inkscape:window-maximized="1" />
  <metadata
     id="metadata5">
    <rdf:RDF>
      <cc:Work
         rdf:about="">
        <dc:format>image/svg+xml</dc:format>
        <dc:type
           rdf:resource="http://purl.org/dc/dcmitype/StillImage" />
        <dc:title></dc:title>
      </cc:Work>
    </rdf:RDF>
  </metadata>
  <g
     inkscape:label="Layer 1"
     inkscape:groupmode="layer"
     id="layer1"
     transform="translate(-38.22233,-97.431307)">
    <path
       style="opacity:1;fill:#0088ff;fill-opacity:1;stroke:none;stroke-width:1.55204582;stroke-linecap:butt;stroke-linejoin:round;stroke-miterlimit:4;stroke-dasharray:none;stroke-dashoffset:0;stroke-opacity:1;paint-order:markers fill stroke"
       d="m 54.153357,113.05209 a 61.988093,57.452376 45 0 0 3.207184,84.45701 61.988093,57.452376 45 0 0 84.457369,3.20755 61.988093,57.452376 45 0 0 6.54189,-7.99402 61.988093,57.452376 45 0 1 -76.566758,-9.64603 61.988093,57.452376 45 0 1 -9.749073,-76.463 61.988093,57.452376 45 0 0 -7.890612,6.43849 z"
       id="path823"
       inkscape:connector-curvature="0" />
    <path
       inkscape:connector-curvature="0"
       id="path843"
       d="m 79.355157,106.92413 a 47.335702,43.872111 45 0 0 2.449094,64.49364 47.335702,43.872111 45 0 0 64.493779,2.44928 47.335702,43.872111 45 0 0 4.9955,-6.10446 47.335702,43.872111 45 0 1 -58.46826,-7.36598 47.335702,43.872111 45 0 1 -7.444641,-58.38908 47.335702,43.872111 45 0 0 -6.025472,4.9166 z"
       style="opacity:1;fill:#0088ff;fill-opacity:1;stroke:none;stroke-width:1.18518209;stroke-linecap:butt;stroke-linejoin:round;stroke-miterlimit:4;stroke-dasharray:none;stroke-dashoffset:0;stroke-opacity:1;paint-order:markers fill stroke" />
    <path
       style="opacity:1;fill:#0088ff;fill-opacity:1;stroke:none;stroke-width:0.87806928;stroke-linecap:butt;stroke-linejoin:round;stroke-miterlimit:4;stroke-dasharray:none;stroke-dashoffset:0;stroke-opacity:1;paint-order:markers fill stroke"
       d="m 105.19992,101.07391 a 35.069745,32.503665 45 0 0 1.81455,47.78162 35.069745,32.503665 45 0 0 47.78156,1.81461 35.069745,32.503665 45 0 0 3.70101,-4.52271 35.069745,32.503665 45 0 1 -43.31747,-5.45727 35.069745,32.503665 45 0 1 -5.51546,-43.258853 35.069745,32.503665 45 0 0 -4.46419,3.642603 z"
       id="path845"
       inkscape:connector-curvature="0" />
  </g>
</svg>
